<?xml version="1.0" encoding="utf-8"?>
<!-- Generator: Adobe Illustrator 27.9.1, SVG Export Plug-In . SVG Version: 6.00 Build 0)  -->
<svg version="1.1" id="Layer_1" xmlns="http://www.w3.org/2000/svg" 
viewBox="0 0 3300 5100" style="enable-background:new 0 0 3300 5100;" >
<g class="st0">
	<path class="st1" d="M716.5,1760c5.3,0.4,8,3,8,7.6c0,4.9-2.1,7.3-6.2,7.3c-1,0-1.5-0.3-1.8-0.8c-0.2-0.4-0.2-1,0-1.8
		c0.2-1.1,0.3-1.7,0.3-1.9c0-2.2-2.4-3.2-7.3-3c-29.5,31.3-53.2,54.5-71.2,69.7c-35.1,30-63.1,45-83.8,45c-4.9,0-8.9-1.5-12.2-4.6
		c-3.2-3.1-4.9-7.1-4.9-11.9c0-10.9,9.1-24.5,27.2-40.6c16.4-14.6,36.5-28.1,60.5-40.3c24.5-12.4,47.2-20.6,68.2-24.5
		c14.8-14.9,37.3-41.6,67.3-80.1c33.3-42.6,52.3-70.5,57.1-83.8c2.1-6.1,3.2-10.7,3.2-13.9c0-4-1.8-6.1-5.4-6.1
		c-14.4,0-37.2,6.3-68.4,18.8c-31.5,12.6-60.3,30.1-86.3,52.4c-26.3,22.6-39.5,42.1-39.5,58.5c0,13,6.8,19.4,20.4,19.4
		c18.8,0,41.6-7.3,68.4-22c25-13.7,40.4-27.1,46-40.2c0.6-1.4,1.3-2.3,2.1-2.7c2.5-0.1,3.8,2,3.8,6.2c0,6.1-5.9,14.6-17.7,25.5
		c-11.2,10.4-26.7,20-46.3,28.9c-20.7,9.3-38,13.9-52.1,13.9c-10.4,0-19.1-3.7-26.2-11.1c-7.1-7.4-10.6-16.3-10.6-26.8
		c0-20.2,13.1-41.1,39.3-62.8c22.5-18.6,50.4-34.7,83.6-48.4c31.4-12.9,56.7-19.3,75.9-19.3c16.1,0,24.2,6.4,24.2,19.1
		C832.3,1610.8,793.7,1668.8,716.5,1760z M685.6,1768.6c-19.6,5.1-41.8,14.8-66.5,29c-25,14.3-44.4,28.7-58.2,43
		c-11.7,12-17.5,20.9-17.5,26.7c0,5.4,3.3,8.1,10,8.1c5.4,0,11.7-1.7,18.8-5.1c10-4.9,29.1-20.5,57.4-46.8
		C650.6,1803.9,669.3,1785.6,685.6,1768.6z"/>
	<path class="st1" d="M807,1750.1l-32.8,25c-16.8,11.7-29.3,17.5-37.6,17.5c-1.3,0-1.9-0.7-1.9-2c0-2.1,1.1-3.3,3.2-3.8
		c6.5-1.2,12-3,16.6-5.6c8-4.3,20.9-13.6,38.8-27.8l42-34.5c8.1-7.1,13-10.6,14.8-10.6c2.7,0,5.6,1.5,8.8,4.5c6.1-4.7,11.6-7,16.3-7
		c7.2,0,10.8,3.9,10.8,11.6c0,11.6-9.2,27.3-27.7,47.3c-18.8,20.2-34,30.2-45.5,30.2c-10.8,0-16.2-5.7-16.2-17
		C796.6,1772,800.1,1762.7,807,1750.1z M845.3,1730.5c-21.6,18.9-32.5,34.4-32.5,46.3c0,5.1,2.4,7.7,7.3,7.7c8,0,20.4-9.6,37.2-28.9
		c-8.9-2.1-13.4-7.9-13.4-17.2C844.1,1735.9,844.5,1733.3,845.3,1730.5z M860.9,1750.4c3.9-3.7,7.9-8.8,11.8-15.2
		c4.4-7.4,6.5-13.2,6.5-17.6c0-4-1.8-6.1-5.3-6.1c-5.2,0-10.4,3.3-15.7,9.8c-5.3,6.6-7.9,12.5-7.9,17.8
		C850.4,1745.2,853.9,1748.9,860.9,1750.4z"/>
	<path class="st1" d="M941.2,1722.2c-0.5-3.5-0.8-5.6-0.8-6.4c0-2.9,3.4-7.3,10.3-13.5c6.8-6.1,11.5-9.2,14.1-9.2
		c2.4,0,3.7,1.1,3.7,3.3c0,1.9-1.3,5.1-4,9.6c12,0,18,4.8,18,14.3c0,7.5-7.7,19.5-23.2,36c-15.4,16.5-23.2,25.7-23.2,27.7
		c0,1.9,1,3,3,3.2l5.2-0.2c1.5,0,2.2,0.9,2.2,2.6c0,2.2-3.1,3.3-9.2,3.3c-7.9,0-11.8-3.5-11.8-10.5c0-6.9,3.9-15.5,11.7-25.8
		c4.9-6.5,12.1-14.5,21.7-24c7.8-7.7,11.7-12,11.7-12.7c0-1.6-0.9-2.4-2.7-2.4c-1.6,0-4.6,0.6-9,1.8c-4.4,1.2-7.1,2.2-7.9,2.9
		c-49.3,46.8-82.6,70.2-99.8,70.2c-1.3,0-1.9-0.7-1.9-2.1c0-1.9,1.4-3.1,4.3-3.6c3.5-0.6,8.1-2.3,13.8-4.9
		c8.6-3.8,21.4-12.9,38.5-27.2C921.2,1742.2,932.9,1731.3,941.2,1722.2z"/>
	<path class="st1" d="M1008.5,1754.4l-30.1,23.1c-14.9,10.1-26.4,15.1-34.5,15.1c-1.3,0-1.9-0.7-1.9-2c0-2,1.1-3.2,3.2-3.8
		c8.2-2,15.6-5,22.3-9.1c10.1-5.9,24.2-16.8,42.4-32.7c18.2-15.9,32.2-26.7,42.1-32.6c7-4.1,13.3-6.2,18.9-6.2
		c9.4,0,14.4,3.9,14.8,11.8c15.9-20.1,34-41.5,54.1-64.3c31-35.2,49.5-52.8,55.6-52.8c3.4,0,5.1,1.9,5.1,5.7
		c0,3.2-4.3,9.3-12.9,18.3c-16,16.7-39.9,43.6-71.6,80.9c-38.9,45.6-58.4,71.4-58.4,77.4c0,2.4,1.8,3.7,5.3,3.8
		c3.6,0.1,5.3,1,5.3,2.8c0,2.2-2.6,3.3-7.7,3.3c-8.5,0-12.7-3.4-12.7-10.3c0-5.5,3.5-14.1,10.5-25.8c-20.9,22.3-35.8,33.4-44.6,33.4
		c-8.2,0-12.3-4.3-12.3-13.1C1001.5,1772.4,1003.8,1764.8,1008.5,1754.4z M1018.2,1782.2c6,0,18-9.1,36-27.2
		c17.9-18.1,26.9-30.2,26.9-36.3c0-3.1-1.4-4.6-4.3-4.6c-7.4,0-19.6,8.8-36.5,26.5c-16.9,17.7-25.3,30.4-25.3,38.3
		C1015,1781.1,1016.1,1782.2,1018.2,1782.2z"/>
	<path class="st1" d="M1124.2,1759.1c-28.3,22.3-47.9,33.5-58.6,33.5c-1.3,0-1.9-0.7-1.9-2.1c0-2,1.3-3.2,3.8-3.6
		c10-1.6,23.8-9.3,41.4-23.1l20.5-16.1l33-26.3c15.1-10.4,28-15.6,38.7-15.6c8,0,12.4,4,13.4,12c4.1-3.9,7-5.9,8.6-5.9
		c3.5,0,5.3,1.4,5.3,4.3c0,3.7-8.1,15.1-24.4,34.1c-16.3,19-24.4,30.1-24.4,33.2c0,2.2,1.8,3.3,5.3,3.4s5.3,1,5.3,2.8
		c0,2.2-3.6,3.3-10.8,3.3c-7.1,0-10.7-3.1-10.7-9.4c0-5,2.9-12.1,8.6-21.4l-19.7,16.7c-9.7,7.2-17.4,10.8-23.1,10.8
		c-9.1,0-13.7-4.6-13.7-13.9C1120.6,1770.9,1121.8,1765.3,1124.2,1759.1z M1203.3,1712.4c-6.3,0-19.2,9.4-38.8,28.1
		c-19.6,18.7-29.4,31.2-29.4,37.5c0,2.9,1.4,4.3,4.1,4.3c6,0,19-9.2,38.9-27.5c19.9-18.3,29.8-30.7,29.8-37.1
		C1208,1714.1,1206.4,1712.4,1203.3,1712.4z"/>
	<path class="st1" d="M1293.6,1744.4c29.2-24.7,49.7-37.1,61.4-37.1c7.5,0,11.3,3.6,11.3,10.7c0,6.3-8.5,17.6-25.6,34
		c-17.1,16.4-25.6,26.3-25.6,29.7c0,3.4,1.9,5.2,5.8,5.5c3.9,0.3,5.8,1.2,5.8,2.8c0,2.1-3.8,3.2-11.5,3.2c-8.9,0-13.3-3.9-13.3-11.8
		c0-6.6,4.2-14.9,12.7-25c4.4-5.2,12.2-13.2,23.6-24.1c8.5-8.1,12.7-13,12.7-14.7c0-1.4-1-2.1-2.9-2.1c-6,0-19.2,8.1-39.5,24.2
		c-16.9,13.4-29.4,24.4-37.6,33c-10.4,11-16.7,16.4-18.9,16.4c-1.7,0-3.2-0.8-4.6-2.5c-1.4-1.6-2.1-3.4-2.1-5.2
		c0-2.4,7.3-12.3,22-29.6l26.3-31l-40.8,33.1l-30.1,23.1c-15.3,10.4-27,15.6-35.2,15.6c-1.4,0-2.1-0.6-2.1-1.9
		c0-1.9,1.5-3.2,4.5-3.8c4-0.7,8.8-2.3,14.2-4.8c7.7-3.4,23.6-14.7,47.4-34.1c21.4-17.4,36.9-30.7,46.3-40c1.6-1.6,4.1-3.5,7.5-5.7
		c1.7-0.6,3.5-1,5.4-1c1.8,0,3.6,0.6,5.5,1.8c1.9,1.2,2.8,2.7,2.8,4.4C1319.1,1709.5,1310.6,1721.8,1293.6,1744.4z"/>
	<path class="st1" d="M1656.2,1708.5c0,11.4-8.4,24.7-25.2,40c-17.5,16-38.7,28.5-63.7,37.4c-23.7,8.4-47.9,12.6-72.7,12.6
		c-33.7,0-50.6-10.1-50.6-30.4c0-12.1,9.5-23.1,28.5-33.1c16.6-8.8,31.6-13.2,45.2-13.2c4.4,0,6.5,1.3,6.5,4c0,1.8-2.2,3-6.7,3.7
		c-12.9,2-25.4,5.7-37.5,11.1c-16.9,7.4-25.4,15.8-25.4,25c0,11.2,13.1,16.9,39.3,16.9c21.3,0,44.2-4.2,68.5-12.7
		c24.9-8.7,45.3-19.8,61.2-33.3c15.5-13.2,23.2-23,23.2-29.6c0-6.5-10.5-10.9-31.4-13.4c-34.6-4-54-6.5-58.1-7.5
		c-20.9-5.1-31.4-14.1-31.4-27.1c0-16.5,12.3-32.1,36.8-47c20.1-12.2,45.6-22.5,76.6-30.9c27.2-7.3,48.9-11,65.3-11
		c20.9,0,31.4,6.5,31.4,19.4c0,11.1-9.7,24.2-29.1,39.3c-18.8,14.5-34.1,21.8-46,21.8c-9.6,0-14.3-3.3-14.3-9.9
		c0-5.5,5.5-12,16.4-19.4c10.4-7,18.5-10.5,24.4-10.5c2,0,3,0.6,3,1.9l-16.4,8.9c-10.9,5.9-16.6,10.3-17,13.1
		c0.5,0.7,1.4,1.1,2.7,1.1c7.7,0,20.3-5.1,37.8-15.3c18.6-10.8,27.9-19.7,27.9-26.7c0-6.2-7.4-9.2-22.3-9.2
		c-17,0-40.9,4.9-71.9,14.7c-20.8,6.6-39.1,13.6-54.8,21c-27.2,12.8-40.8,24.3-40.8,34.6c0,6.6,8.6,11.5,25.8,14.7l51.1,6.6
		c19.9,3,32.1,7.3,36.5,13.1C1653.8,1695.5,1656.2,1702,1656.2,1708.5z"/>
	<path class="st1" d="M1736.9,1688.6l-57.3,2.2c-3.2,0-4.8-0.8-4.8-2.5c0-1.4,2.6-2.4,7.8-3.2c7.3-1.2,17.6-2.2,30.9-3
		c14.7-0.8,25.1-1.6,31-2.4l22.8-27.2c12.2-14.4,19.6-21.6,22.1-21.6c3.2,0,4.8,2,4.8,6c0,4.4-9.7,18.6-29,42.8
		c11.1-0.7,20.4-1.1,27.7-1.1c4.9,0,7.3,1,7.3,2.9c0,2.1-5.9,3.6-17.7,4.3l-24.2,0.8l-35.5,44.3c-22.4,29.1-33.6,46.5-33.6,52.1
		c0,2.6,1.8,4,5.4,4.1c3.6,0.1,5.4,1,5.4,2.7c0,2.1-2.3,3.1-7,3.1c-9.4,0-14.2-3.8-14.2-11.5c0-6,3.1-14.7,9.2-25.9l13.8-23.2
		l-47.1,37.1c-19.6,15.5-34.8,23.2-45.4,23.2c-1.3,0-1.9-0.7-1.9-2.1c0-1.9,1.1-3.1,3.2-3.6c3.6-0.7,9.1-2.6,16.4-5.6
		c7.1-3.7,22.9-15.2,47.4-34.3c18.1-14.1,29.6-23.3,34.2-27.5C1717.3,1711.9,1726.6,1701.6,1736.9,1688.6z"/>
	<path class="st1" d="M1757,1766.8c-5.3,1.3-15.3,6.2-29.9,14.6c-12.9,7.4-22.8,11.1-29.4,11.1c-1.3,0-1.9-0.7-1.9-2.1
		c0-2,1.4-3.2,4.1-3.6c6.5-1.1,15.6-5,27.4-11.9c12.9-7.4,23.5-12,31.7-13.9c4.9-11.8,15-24.1,30.2-37.1
		c16.2-13.9,30.1-20.9,41.5-20.9c8.5,0,12.7,3.6,12.7,10.8c0,9.4-9,19.7-26.9,30.9c-13.2,8.3-26.6,14.8-40.4,19.4
		c-1.5,3.4-2.2,6.9-2.2,10.6c0,5.5,1.9,9.1,5.8,10.7c1.9,0.7,5.6,1.2,10.9,1.4c3.8,0.1,5.8,1,5.8,2.8c0,2.7-6.6,4.1-19.7,4.1
		c-13.9,0-20.8-6-20.8-18C1755.9,1773.1,1756.2,1770.1,1757,1766.8z M1778,1757.9c9.8-4.8,20.1-11.2,30.9-19.4
		c14.4-10.7,21.6-19.2,21.6-25.5c0-2.5-1.2-3.8-3.5-3.8c-6.9,0-16.3,6.4-28.2,19.1C1788.2,1739.9,1781.3,1749.7,1778,1757.9z"/>
	<path class="st1" d="M1897.4,1722.1l-45.5,37.2c-27.1,22.2-46.4,33.3-58.1,33.3c-1.3,0-1.9-0.7-1.9-2c0-1.9,1.4-3.1,4.3-3.8
		c4.4-1,9.1-2.6,14.3-5.1c6.6-3,21.4-13.7,44.6-32.1c10.5-8.3,25.9-21.2,46.2-38.9c7.9-7.6,13.2-11.4,15.9-11.4c1.9,0,3.9,1,6,3
		c2.1,2,3.1,4,3.1,5.9c0,2.5-7.9,13.9-23.7,34.1c-15.8,20.2-23.7,32.2-23.7,36c0,3.1,1.2,4.6,3.7,4.6c5.8,0,18.9-12.3,39.3-37
		c20.4-24.7,32-37,35-37c3.7,0,5.6,1.9,5.6,5.6c0,2.4-5.8,12-17.5,28.7c-11.7,16.7-17.5,28.7-17.5,36.1c0,3.7,1.5,5.6,4.6,5.6
		c5.3,0,17-10.2,35-30.7c-2.4-2.1-3.6-5.1-3.6-9.1c0-8,4.5-17.6,13.5-28.8c9.4-11.7,17.9-17.5,25.3-17.5c2.5,0,3.8,1.5,3.8,4.6
		c0,9.7-10.3,26.7-31,51.3c-21,24.9-36.3,37.4-46,37.4c-8.9,0-13.4-4.6-13.4-13.8c0-6.5,2.4-14.6,7.3-24.4
		c-10.5,11.9-17.4,19.4-20.7,22.6c-10.4,10.1-18.6,15.1-24.7,15.1c-7.6,0-11.5-4.1-11.5-12.4c0-8,4-18.1,11.9-30.4L1897.4,1722.1z
		 M1972.1,1747.7c17.1-19.5,25.7-32.3,25.7-38.4c0-1.5-0.6-2.2-1.8-2.2c-3.9,0-9.3,4.8-16.2,14.4c-6.8,9.6-10.2,16.8-10.2,21.6
		C1969.6,1745.3,1970.5,1746.9,1972.1,1747.7z"/>
	<path class="st1" d="M2017.9,1759.1c-28.3,22.3-47.9,33.5-58.6,33.5c-1.3,0-1.9-0.7-1.9-2.1c0-2,1.3-3.2,3.8-3.6
		c10-1.6,23.8-9.3,41.4-23.1l20.5-16.1l33-26.3c15.1-10.4,28-15.6,38.7-15.6c8,0,12.4,4,13.4,12c4.1-3.9,7-5.9,8.6-5.9
		c3.5,0,5.3,1.4,5.3,4.3c0,3.7-8.1,15.1-24.4,34.1c-16.3,19-24.4,30.1-24.4,33.2c0,2.2,1.8,3.3,5.3,3.4s5.3,1,5.3,2.8
		c0,2.2-3.6,3.3-10.8,3.3c-7.1,0-10.7-3.1-10.7-9.4c0-5,2.9-12.1,8.6-21.4L2051,1779c-9.7,7.2-17.4,10.8-23.1,10.8
		c-9.1,0-13.7-4.6-13.7-13.9C2014.2,1770.9,2015.4,1765.3,2017.9,1759.1z M2097,1712.4c-6.3,0-19.2,9.4-38.8,28.1
		c-19.6,18.7-29.4,31.2-29.4,37.5c0,2.9,1.4,4.3,4.1,4.3c6,0,19-9.2,38.9-27.5c19.9-18.3,29.8-30.7,29.8-37.1
		C2101.6,1714.1,2100.1,1712.4,2097,1712.4z"/>
	<path class="st1" d="M2171,1722.2c-0.5-3.5-0.8-5.6-0.8-6.4c0-2.9,3.4-7.3,10.3-13.5c6.8-6.1,11.5-9.2,14.1-9.2
		c2.4,0,3.7,1.1,3.7,3.3c0,1.9-1.3,5.1-4,9.6c12,0,18,4.8,18,14.3c0,7.5-7.7,19.5-23.2,36c-15.4,16.5-23.2,25.7-23.2,27.7
		c0,1.9,1,3,3,3.2l5.2-0.2c1.5,0,2.2,0.9,2.2,2.6c0,2.2-3.1,3.3-9.2,3.3c-7.9,0-11.8-3.5-11.8-10.5c0-6.9,3.9-15.5,11.7-25.8
		c4.9-6.5,12.1-14.5,21.7-24c7.8-7.7,11.7-12,11.7-12.7c0-1.6-0.9-2.4-2.7-2.4c-1.6,0-4.6,0.6-9,1.8c-4.4,1.2-7.1,2.2-7.9,2.9
		c-49.3,46.8-82.6,70.2-99.8,70.2c-1.3,0-1.9-0.7-1.9-2.1c0-1.9,1.4-3.1,4.3-3.6c3.5-0.6,8.1-2.3,13.8-4.9
		c8.6-3.8,21.4-12.9,38.5-27.2C2151,1742.2,2162.7,1731.3,2171,1722.2z"/>
	<path class="st1" d="M2238.3,1754.4l-30.1,23.1c-14.9,10.1-26.4,15.1-34.5,15.1c-1.3,0-1.9-0.7-1.9-2c0-2,1.1-3.2,3.2-3.8
		c8.2-2,15.6-5,22.3-9.1c10.1-5.9,24.2-16.8,42.4-32.7c18.2-15.9,32.2-26.7,42.1-32.6c7-4.1,13.3-6.2,18.9-6.2
		c9.4,0,14.4,3.9,14.8,11.8c15.9-20.1,34-41.5,54.1-64.3c31-35.2,49.5-52.8,55.6-52.8c3.4,0,5.1,1.9,5.1,5.7
		c0,3.2-4.3,9.3-12.9,18.3c-16,16.7-39.9,43.6-71.6,80.9c-38.9,45.6-58.4,71.4-58.4,77.4c0,2.4,1.8,3.7,5.3,3.8
		c3.6,0.1,5.3,1,5.3,2.8c0,2.2-2.6,3.3-7.7,3.3c-8.5,0-12.7-3.4-12.7-10.3c0-5.5,3.5-14.1,10.5-25.8c-20.9,22.3-35.8,33.4-44.6,33.4
		c-8.2,0-12.3-4.3-12.3-13.1C2231.3,1772.4,2233.7,1764.8,2238.3,1754.4z M2248,1782.2c6,0,18-9.1,36-27.2
		c17.9-18.1,26.9-30.2,26.9-36.3c0-3.1-1.4-4.6-4.3-4.6c-7.4,0-19.6,8.8-36.5,26.5c-16.9,17.7-25.3,30.4-25.3,38.3
		C2244.9,1781.1,2245.9,1782.2,2248,1782.2z"/>
</g>
</svg>
